<svg width="13" height="13" viewBox="0 0 13 13" fill="none" xmlns="http://www.w3.org/2000/svg">
<path d="M3.51738 0.0298707C2.8527 0.0290452 2.20141 0.216808 1.63918 0.571353C1.07694 0.925897 0.626828 1.43267 0.341113 2.03282C0.0553975 2.63297 -0.0541932 3.30186 0.0250687 3.9618C0.104331 4.62175 0.369193 5.24567 0.788892 5.76109L6.42291 12.374L12.0014 5.82705L12.0292 5.7958L12.0569 5.76109C12.3616 5.39366 12.5883 4.96805 12.7232 4.51019C12.8581 4.05232 12.8983 3.57179 12.8415 3.09787C12.7847 2.62395 12.632 2.16655 12.3927 1.75355C12.1534 1.34055 11.8325 0.980591 11.4496 0.6956C11.0667 0.410608 10.6298 0.206552 10.1655 0.0958615C9.70117 -0.0148287 9.21919 -0.0298352 8.7489 0.0517562C8.27861 0.133348 7.82985 0.309829 7.42997 0.570449C7.03008 0.831068 6.68744 1.17037 6.42291 1.56768C6.10151 1.09389 5.66897 0.706019 5.16309 0.43795C4.65721 0.169881 4.09337 0.029774 3.52085 0.0298707H3.51738Z" fill="white"/>
</svg>
