<svg width="13" height="9" viewBox="0 0 13 9" fill="none" xmlns="http://www.w3.org/2000/svg">
<path d="M9.50002 0.25V8.25C9.50002 8.3163 9.47368 8.37989 9.4268 8.42678C9.37991 8.47366 9.31632 8.5 9.25002 8.5C9.18371 8.5 9.12013 8.47366 9.07324 8.42678C9.02636 8.37989 9.00002 8.3163 9.00002 8.25V0.25C9.00002 0.183696 9.02636 0.120107 9.07324 0.0732234C9.12013 0.0263393 9.18371 0 9.25002 0C9.31632 0 9.37991 0.0263393 9.4268 0.0732234C9.47368 0.120107 9.50002 0.183696 9.50002 0.25ZM12.25 0C12.1837 0 12.1201 0.0263393 12.0732 0.0732234C12.0264 0.120107 12 0.183696 12 0.25V8.25C12 8.3163 12.0264 8.37989 12.0732 8.42678C12.1201 8.47366 12.1837 8.5 12.25 8.5C12.3163 8.5 12.3799 8.47366 12.4268 8.42678C12.4737 8.37989 12.5 8.3163 12.5 8.25V0.25C12.5 0.183696 12.4737 0.120107 12.4268 0.0732234C12.3799 0.0263393 12.3163 0 12.25 0ZM7.00002 4.25C7.00062 4.37467 6.96951 4.49745 6.90959 4.60679C6.84967 4.71613 6.76293 4.80842 6.65752 4.875L1.14564 8.3825C1.03249 8.45417 0.902213 8.49422 0.768343 8.49851C0.634474 8.5028 0.501899 8.47116 0.384394 8.40687C0.267444 8.34417 0.169835 8.25072 0.102098 8.13662C0.0343598 8.02251 -0.000935654 7.89207 1.88589e-05 7.75937V0.740625C-0.000935654 0.607929 0.0343598 0.477492 0.102098 0.363384C0.169835 0.249276 0.267444 0.155829 0.384394 0.0931251C0.501899 0.0288443 0.634474 -0.00279682 0.768343 0.00148964C0.902213 0.0057761 1.03249 0.0458337 1.14564 0.1175L6.65752 3.625C6.76293 3.69158 6.84967 3.78387 6.90959 3.89321C6.96951 4.00255 7.00062 4.12533 7.00002 4.25ZM6.50002 4.25C6.50021 4.20975 6.49009 4.17011 6.47061 4.13488C6.45114 4.09965 6.42296 4.07 6.38877 4.04875L0.875019 0.539375C0.836055 0.514209 0.790775 0.500561 0.744394 0.5C0.702616 0.500278 0.661574 0.511022 0.625019 0.53125C0.587023 0.551375 0.555277 0.581538 0.533237 0.618455C0.511196 0.655373 0.499707 0.69763 0.500019 0.740625V7.75937C0.499707 7.80237 0.511196 7.84463 0.533237 7.88154C0.555277 7.91846 0.587023 7.94863 0.625019 7.96875C0.663557 7.99004 0.707132 8.00053 0.751137 7.9991C0.795143 7.99767 0.837945 7.98437 0.875019 7.96062L6.38627 4.45125C6.42092 4.43031 6.4496 4.40078 6.46952 4.36553C6.48945 4.33028 6.49995 4.29049 6.50002 4.25Z" fill="white"/>
</svg>
